<?xml version="1.0" standalone="no"?>
<!DOCTYPE svg PUBLIC "-//W3C//DTD SVG 20010904//EN"
 "http://www.w3.org/TR/2001/REC-SVG-20010904/DTD/svg10.dtd">
<svg version="1.0" xmlns="http://www.w3.org/2000/svg"
 width="1200.000000pt" height="1200.000000pt" viewBox="0 0 1200.000000 1200.000000"
 preserveAspectRatio="xMidYMid meet">

<g transform="translate(0.000000,1200.000000) scale(0.100000,-0.100000)"
fill="#000000" stroke="none">
<path d="M6450 6560 c0 -5 4 -19 9 -32 5 -13 12 -36 16 -51 3 -15 10 -25 15
-22 14 9 12 89 -2 103 -14 14 -38 16 -38 2z"/>
<path d="M6533 6410 c-6 -23 -33 -27 -33 -5 0 22 -9 19 -38 -12 l-25 -27 -9
24 c-9 25 -21 19 -32 -16 -4 -14 -1 -28 9 -38 15 -14 19 -14 46 -1 16 9 35 15
42 14 38 -5 67 20 67 57 0 29 -20 32 -27 4z"/>
<path d="M1575 6380 c-21 -40 -19 -67 5 -80 17 -9 25 -6 45 14 28 28 29 34 15
70 -13 36 -45 34 -65 -4z m45 -15 c13 -16 6 -35 -15 -35 -18 0 -28 17 -21 35
7 19 20 19 36 0z"/>
<path d="M4655 6381 c-8 -17 -14 -44 -13 -61 2 -24 7 -30 25 -30 53 0 140 58
113 75 -7 4 -19 0 -28 -9 -16 -15 -18 -14 -28 16 -15 45 -48 49 -69 9z m45
-16 c13 -16 6 -35 -15 -35 -18 0 -28 17 -21 35 7 19 20 19 36 0z"/>
<path d="M4955 6395 c-70 -38 -85 -77 -54 -138 10 -21 19 -39 19 -41 0 -2 -19
-15 -43 -29 -61 -36 -124 -108 -133 -151 -8 -43 -8 -44 -74 -56 -50 -9 -54 -8
-93 20 -66 48 -91 34 -63 -35 36 -86 8 -143 -93 -194 -53 -27 -151 -61 -176
-61 -8 0 -8 16 3 58 19 72 10 122 -29 166 -39 45 -103 67 -215 73 -151 9 -390
-29 -483 -77 -100 -51 -115 -134 -38 -207 42 -40 78 -57 174 -85 70 -21 100
-23 281 -23 111 0 202 -1 202 -3 0 -2 -13 -34 -30 -72 -32 -72 -36 -90 -21
-90 13 0 43 44 80 118 18 35 37 64 44 66 7 2 48 14 92 26 168 46 278 125 291
210 6 40 7 40 50 40 56 0 182 45 217 78 31 30 36 75 10 92 -17 9 -17 11 4 29
12 10 66 43 121 74 96 55 182 131 182 161 0 7 -9 24 -19 37 -17 21 -29 24 -98
27 -57 2 -86 -1 -108 -13z m135 -60 c0 -16 -75 -75 -95 -75 -19 0 -46 36 -39
53 12 33 134 53 134 22z m-981 -405 c19 -5 45 -19 58 -32 27 -25 30 -75 11
-157 l-11 -50 -56 -8 c-85 -12 -318 -8 -386 6 -134 29 -225 80 -225 125 0 48
62 76 230 106 115 20 324 26 379 10z"/>
<path d="M3001 6373 c-22 -18 -22 -20 -12 -143 6 -69 14 -146 17 -172 5 -42 3
-48 -20 -63 -14 -9 -57 -21 -96 -26 -102 -13 -156 -43 -207 -116 -37 -53 -48
-62 -90 -72 -112 -28 -123 -32 -123 -46 0 -17 11 -19 90 -15 85 3 123 23 164
85 44 66 95 95 186 105 80 9 138 35 153 67 13 29 -13 387 -30 404 -7 7 -17 4
-32 -8z"/>
<path d="M5691 6373 c-22 -18 -22 -20 -12 -143 6 -69 14 -146 17 -172 5 -42 3
-48 -19 -63 -14 -9 -56 -21 -92 -26 -100 -14 -152 -44 -202 -116 -37 -53 -48
-62 -90 -72 -112 -28 -123 -32 -123 -46 0 -17 11 -19 90 -15 85 3 123 23 164
85 43 65 93 94 182 105 76 9 132 35 147 67 13 29 -13 387 -30 404 -7 7 -17 4
-32 -8z"/>
<path d="M6620 6369 c-8 -15 -7 -57 5 -162 23 -205 41 -259 66 -203 9 19 9 59
0 163 -18 210 -20 223 -42 223 -10 0 -23 -9 -29 -21z"/>
<path d="M2785 6339 c-4 -5 -32 -22 -63 -36 -59 -26 -57 -40 3 -29 38 7 98 53
89 67 -7 12 -21 11 -29 -2z"/>
<path d="M3130 6329 c-8 -15 -7 -57 5 -162 23 -205 41 -259 66 -203 9 19 9 59
0 163 -18 210 -20 223 -42 223 -10 0 -23 -9 -29 -21z"/>
<path d="M5485 6339 c-4 -5 -32 -22 -63 -36 -59 -26 -57 -40 3 -29 38 7 98 53
89 67 -7 12 -21 11 -29 -2z"/>
<path d="M5820 6329 c-8 -15 -7 -57 5 -162 23 -205 41 -259 66 -203 9 19 9 59
0 163 -18 210 -20 223 -42 223 -10 0 -23 -9 -29 -21z"/>
<path d="M2783 6250 c-6 -23 -33 -27 -33 -5 0 22 -9 19 -38 -12 l-25 -27 -9
24 c-9 25 -21 19 -32 -16 -4 -14 -1 -28 9 -38 15 -14 19 -14 46 -1 16 9 35 15
42 14 38 -5 67 20 67 57 0 29 -20 32 -27 4z"/>
<path d="M5483 6250 c-6 -23 -33 -27 -33 -5 0 22 -9 19 -38 -12 l-25 -27 -9
24 c-9 25 -21 19 -32 -16 -4 -14 -1 -28 9 -38 15 -14 19 -14 46 -1 16 9 35 15
42 14 38 -5 67 20 67 57 0 29 -20 32 -27 4z"/>
<path d="M6534 6246 c-3 -8 -1 -46 5 -85 6 -38 11 -94 11 -124 0 -52 -2 -55
-27 -60 -16 -3 -33 -1 -39 4 -7 5 -17 61 -24 124 -15 129 -21 146 -47 129 -16
-10 -18 -24 -15 -107 4 -110 -3 -120 -74 -110 -72 9 -128 -37 -175 -141 -25
-57 -13 -85 17 -41 11 15 37 48 60 73 38 42 43 45 90 44 27 -1 62 5 77 13 21
11 27 11 27 1 0 -45 115 -65 161 -27 29 23 35 99 17 226 -12 81 -15 90 -36 93
-13 2 -24 -3 -28 -12z"/>
<path d="M10025 6230 c-21 -40 -19 -67 5 -80 17 -9 25 -6 45 14 28 28 29 34
15 70 -13 36 -45 34 -65 -4z m45 -15 c13 -16 6 -35 -15 -35 -18 0 -28 17 -21
35 7 19 20 19 36 0z"/>
<path d="M10323 6183 c-18 -7 -16 -34 7 -88 11 -26 20 -55 20 -65 0 -23 -36
-50 -67 -50 -20 0 -21 3 -13 25 13 34 3 55 -26 55 -18 0 -27 -9 -38 -34 -13
-32 -51 -64 -63 -53 -2 3 1 15 7 27 9 16 9 25 -1 36 -19 23 -32 17 -72 -31
-27 -32 -46 -45 -63 -45 l-25 0 20 26 c37 47 0 78 -48 38 -68 -57 6 -54 -1324
-54 l-1224 0 -31 39 c-52 64 -121 63 -199 -3 -18 -15 -38 -45 -44 -66 -11 -35
-18 -41 -71 -61 -112 -42 -131 -99 -77 -228 17 -40 33 -97 36 -126 6 -52 5
-53 -28 -71 -39 -20 -26 -29 26 -20 43 8 101 54 86 69 -7 7 -14 7 -23 -1 -10
-8 -13 -1 -15 36 -1 26 -13 77 -27 115 -47 123 -30 156 94 182 99 20 135 61
94 106 -15 16 -14 19 15 33 40 21 71 12 96 -27 l20 -32 1260 -3 c762 -1 1271
2 1287 7 20 7 30 6 38 -4 17 -21 63 -27 96 -14 16 6 50 11 76 10 26 -1 57 3
69 9 16 9 28 9 50 0 41 -17 93 -5 129 31 26 27 30 37 30 88 0 66 -15 120 -38
139 -17 13 -20 13 -39 5z"/>
<path d="M4323 6154 c-12 -19 -14 -30 -6 -43 15 -24 42 -20 60 10 32 53 -20
85 -54 33z"/>
<path d="M2264 6141 c-30 -18 -64 -77 -78 -133 -5 -23 -13 -28 -52 -34 -24 -3
-46 -5 -47 -3 -1 2 -9 18 -18 34 -14 27 -20 30 -65 30 -90 -1 -222 -91 -249
-170 -12 -36 -19 -42 -71 -63 -82 -31 -108 -60 -110 -121 -1 -27 -5 -54 -9
-60 -3 -6 0 -11 7 -11 15 0 60 -113 79 -198 7 -29 17 -51 23 -49 22 7 18 102
-9 178 l-25 73 36 29 c44 36 32 63 -13 28 -32 -26 -41 -14 -23 29 12 30 22 35
132 70 37 12 77 29 89 39 22 17 29 61 16 91 -8 17 58 63 104 74 22 5 30 0 50
-32 24 -36 27 -37 77 -34 l52 3 0 -36 c0 -47 17 -44 40 8 19 42 20 43 133 80
113 37 131 50 120 85 -3 6 -15 12 -29 12 -18 0 -29 10 -44 40 -18 35 -51 60
-78 60 -4 0 -21 -9 -38 -19z m61 -80 l15 -29 -47 -16 c-26 -9 -48 -16 -50 -16
-5 0 27 62 39 78 16 19 26 15 43 -17z"/>
<path d="M10342 5850 c-23 -38 -10 -70 29 -70 14 0 39 57 33 74 -9 22 -47 20
-62 -4z"/>
<path d="M2295 5819 c-4 -5 -32 -22 -63 -36 -59 -26 -57 -40 3 -29 38 7 98 53
89 67 -7 12 -21 11 -29 -2z"/>
<path d="M1975 5799 c-33 -11 -64 -24 -70 -30 -28 -28 80 -40 141 -14 28 11
35 19 32 37 -4 30 -28 31 -103 7z"/>
<path d="M6235 5679 c-4 -5 -32 -22 -63 -36 -59 -26 -57 -40 3 -29 38 7 98 53
89 67 -7 12 -21 11 -29 -2z"/>
<path d="M10415 5659 c-4 -5 -32 -22 -63 -36 -59 -26 -57 -40 3 -29 38 7 98
53 89 67 -7 12 -21 11 -29 -2z"/>
<path d="M3685 5589 c-4 -5 -32 -22 -63 -36 -59 -26 -57 -40 3 -29 38 7 98 53
89 67 -7 12 -21 11 -29 -2z"/>
</g>
</svg>
